<svg width="80" height="81" viewBox="0 0 80 81" fill="none" xmlns="http://www.w3.org/2000/svg">
<g filter="url(#filter0_d_5_5)">
<path d="M0 28C0 26.8954 0.895431 26 2 26H75C76.1046 26 77 26.8954 77 28V50C77 51.1046 76.1046 52 75 52H2C0.895431 52 0 51.1046 0 50V28Z" fill="#643B3B"/>
<path d="M26 2C26 0.89543 26.8954 0 28 0H50C51.1046 0 52 0.895431 52 2V76C52 77.1046 51.1046 78 50 78H28C26.8954 78 26 77.1046 26 76V2Z" fill="#643B3B"/>
</g>
<defs>
<filter id="filter0_d_5_5" x="0" y="0" width="80" height="81" filterUnits="userSpaceOnUse" color-interpolation-filters="sRGB">
<feFlood flood-opacity="0" result="BackgroundImageFix"/>
<feColorMatrix in="SourceAlpha" type="matrix" values="0 0 0 0 0 0 0 0 0 0 0 0 0 0 0 0 0 0 127 0" result="hardAlpha"/>
<feOffset dx="2" dy="2"/>
<feGaussianBlur stdDeviation="0.5"/>
<feComposite in2="hardAlpha" operator="out"/>
<feColorMatrix type="matrix" values="0 0 0 0 0 0 0 0 0 0 0 0 0 0 0 0 0 0 0.25 0"/>
<feBlend mode="normal" in2="BackgroundImageFix" result="effect1_dropShadow_5_5"/>
<feBlend mode="normal" in="SourceGraphic" in2="effect1_dropShadow_5_5" result="shape"/>
</filter>
</defs>
</svg>
