<svg version="1.1" viewBox="0 0 700 700" xmlns="http://www.w3.org/2000/svg">
 <g>
  <path d="m193.85 216.68c1.3203 3.1992 3.5625 5.9336 6.4375 7.8594 2.875 1.9219 6.2539 2.9531 9.7148 2.957h280c6.2539 0 12.031-3.3359 15.156-8.75s3.125-12.086 0-17.5-8.9023-8.75-15.156-8.75h-237.75l22.629-22.629h-0.003906c4.293-4.4453 5.9258-10.824 4.293-16.785-1.6367-5.957-6.293-10.613-12.25-12.25-5.9609-1.6328-12.34 0-16.785 4.293l-52.5 52.5c-2.4492 2.4453-4.1172 5.5664-4.793 8.9609-0.67578 3.3945-0.33203 6.9141 0.99219 10.113z"/>
  <path d="m506.15 378.32c-1.3203-3.1992-3.5625-5.9336-6.4375-7.8594-2.875-1.9219-6.2539-2.9531-9.7148-2.957h-280c-6.2539 0-12.031 3.3359-15.156 8.75s-3.125 12.086 0 17.5 8.9023 8.75 15.156 8.75h237.75l-22.629 22.629h0.003906c-3.3789 3.2578-5.3008 7.7422-5.3438 12.434-0.039062 4.6953 1.8047 9.207 5.125 12.527 3.3203 3.3203 7.832 5.1641 12.527 5.125 4.6914-0.042969 9.1758-1.9648 12.434-5.3438l52.5-52.5c2.4492-2.4453 4.1172-5.5664 4.793-8.9609 0.67578-3.3945 0.33203-6.9141-0.99219-10.113z"/>
 </g>
</svg>
