<svg version="1.1" viewBox="0 0 700 700" xmlns="http://www.w3.org/2000/svg">
 <path d="m473.2 58.547c-8.8555-4.5195-18.777-6.5312-28.695-5.8125-9.9141 0.71875-19.445 4.1367-27.559 9.8828l-126 90.109h-62.109c-15.121 0-29.625 6.0078-40.316 16.699-10.695 10.695-16.703 25.199-16.703 40.32v140.51c0 15.121 6.0078 29.625 16.703 40.32 10.691 10.691 25.195 16.699 40.316 16.699h62.109l127.27 90.109c9.2148 6.5742 20.242 10.133 31.562 10.18 8.8633 0.12891 17.617-1.9727 25.457-6.1094 8.5391-4.8047 15.613-11.844 20.457-20.363 4.8438-8.5234 7.2734-18.199 7.0312-28v-346.18c0.046876-10.008-2.6914-19.828-7.9023-28.371-5.2148-8.5391-12.703-15.461-21.625-19.992zm-199.56 297.82h-44.801c-1.6211 0-3.1719-0.64453-4.3203-1.7891-1.1445-1.1445-1.7891-2.6992-1.7891-4.3203v-140.51c0-1.6211 0.64453-3.1758 1.7891-4.3203 1.1484-1.1445 2.6992-1.7891 4.3203-1.7891h44.801zm178.18 96.727h-0.003906c0.11719 1.293-0.59766 2.5195-1.7812 3.0547-1.0859 0.69531-2.4766 0.69531-3.5625 0l-121.93-87.309v-178.18l121.93-87.055v0.003906c1.0859-0.69531 2.4766-0.69531 3.5625 0 1.2852 0.5625 2.0195 1.9258 1.7812 3.3086z"/>
</svg>
